<svg xmlns="http://www.w3.org/2000/svg" viewBox="0 0 32 32" fill="none">
  <!-- Bottom book -->
  <rect x="4" y="20" width="24" height="4" rx="1" fill="#8B4513" stroke="#654321" stroke-width="0.5"/>
  <rect x="4" y="21" width="24" height="1" fill="#A0522D"/>
  
  <!-- Middle book -->
  <rect x="6" y="14" width="20" height="4" rx="1" fill="#2D5AA0" stroke="#1E3A8A" stroke-width="0.5"/>
  <rect x="6" y="15" width="20" height="1" fill="#3B82F6"/>
  
  <!-- Top book -->
  <rect x="8" y="8" width="16" height="4" rx="1" fill="#DC2626" stroke="#991B1B" stroke-width="0.5"/>
  <rect x="8" y="9" width="16" height="1" fill="#EF4444"/>
  
  <!-- Book spine details -->
  <line x1="6" y1="14" x2="6" y2="18" stroke="#1E3A8A" stroke-width="0.5"/>
  <line x1="26" y1="14" x2="26" y2="18" stroke="#1E3A8A" stroke-width="0.5"/>
  
  <line x1="4" y1="20" x2="4" y2="24" stroke="#654321" stroke-width="0.5"/>
  <line x1="28" y1="20" x2="28" y2="24" stroke="#654321" stroke-width="0.5"/>
  
  <line x1="8" y1="8" x2="8" y2="12" stroke="#991B1B" stroke-width="0.5"/>
  <line x1="24" y1="8" x2="24" y2="12" stroke="#991B1B" stroke-width="0.5"/>
  
  <!-- Book titles (small lines) -->
  <line x1="10" y1="10" x2="14" y2="10" stroke="#FECACA" stroke-width="0.5"/>
  <line x1="8" y1="16" x2="12" y2="16" stroke="#BFDBFE" stroke-width="0.5"/>
  <line x1="6" y1="22" x2="10" y2="22" stroke="#D2B48C" stroke-width="0.5"/>
</svg>
